<svg xmlns="http://www.w3.org/2000/svg" width="32" height="32" fill="currentColor"
  viewBox="0 0 515 516">
  <path
    d="M329 152q2 8 10 8t10-8l14-48 48-14q8-2 8-10t-8-10l-48-14-14-48q-2-8-10-8t-10 8l-14 48-48 14q-8 2-8 10t8 10l48 14 14 48ZM119 346l-40-39 55-8q25-4 36-26l25-51 25 51q11 22 36 26l55 8-40 39q-17 18-14 43l10 55-50-26q-22-11-44 0l-50 26 10-55q3-25-14-43Zm54-189-46 94-103 16q-16 3-20 16t6 24l75 74-17 103q-2 15 9 23 11 9 25 2l93-49 93 49q14 7 25-2 11-8 9-23l-17-103 75-74q10-11 6-24-5-13-20-16l-103-16-47-94q-7-13-21-13t-22 13Zm259 86 11 39q2 6 8 6t8-6l11-39 39-11q6-2 6-8t-6-8l-39-11-11-39q-2-6-8-6t-8 6l-11 39-39 11q-6 2-6 8t6 8l39 11Z" />
</svg>
